<?xml version="1.0" encoding="utf-8"?>
<!-- Generator: Adobe Illustrator 16.0.0, SVG Export Plug-In . SVG Version: 6.00 Build 0)  -->
<!DOCTYPE svg PUBLIC "-//W3C//DTD SVG 1.1//EN" "http://www.w3.org/Graphics/SVG/1.1/DTD/svg11.dtd">
<svg version="1.1" id="Layer_1" xmlns="http://www.w3.org/2000/svg" xmlns:xlink="http://www.w3.org/1999/xlink" x="0px" y="0px"
	 width="155px" height="2356px" viewBox="0 0 155 2356" enable-background="new 0 0 155 2356" xml:space="preserve">
<g>
	<rect x="6.802" y="109.204" fill="#8EC641" width="16" height="16"/>
	<g>
		<path fill="#FFFFFF" d="M18.476,115.709l-3.682,3.683l-0.692,0.689c-0.091,0.092-0.219,0.143-0.346,0.143
			s-0.254-0.051-0.346-0.143l-0.691-0.689l-1.841-1.842c-0.092-0.092-0.143-0.219-0.143-0.345c0-0.128,0.051-0.254,0.143-0.347
			l0.691-0.691c0.092-0.091,0.219-0.143,0.346-0.143s0.254,0.051,0.346,0.143l1.495,1.5l3.336-3.342
			c0.092-0.091,0.219-0.142,0.346-0.142s0.254,0.051,0.346,0.142l0.691,0.692c0.092,0.091,0.143,0.219,0.143,0.346
			C18.619,115.49,18.568,115.617,18.476,115.709z"/>
	</g>
</g>
<g>
	<rect x="6.803" y="136.572" fill="#9D9D9D" width="16" height="16"/>
</g>
<g>
	<rect x="6.802" y="163.94" fill="#CC4241" width="16" height="16"/>
	<g>
		<path fill="#FFFFFF" d="M17.893,174.288l-0.742,0.743c-0.099,0.098-0.235,0.153-0.372,0.153c-0.137,0-0.272-0.055-0.371-0.153
			l-1.604-1.605l-1.605,1.605c-0.099,0.098-0.234,0.153-0.371,0.153c-0.137,0-0.273-0.055-0.372-0.153l-0.742-0.743
			c-0.099-0.099-0.153-0.235-0.153-0.372c0-0.137,0.055-0.273,0.153-0.371l1.605-1.605l-1.605-1.605
			c-0.099-0.098-0.153-0.234-0.153-0.371c0-0.137,0.055-0.273,0.153-0.372l0.742-0.743c0.099-0.098,0.235-0.153,0.372-0.153
			c0.137,0,0.272,0.055,0.371,0.153l1.605,1.605l1.604-1.605c0.099-0.098,0.234-0.153,0.371-0.153c0.137,0,0.273,0.055,0.372,0.153
			l0.742,0.743c0.099,0.099,0.153,0.235,0.153,0.372c0,0.137-0.055,0.273-0.153,0.371l-1.605,1.605l1.605,1.605
			c0.099,0.098,0.153,0.234,0.153,0.371C18.046,174.053,17.991,174.189,17.893,174.288z"/>
	</g>
</g>
<g>
	<g>
		<path fill="#FFFFFF" d="M137.207,207.1c-4.295,0-7.791-3.495-7.791-7.792c0-4.297,3.494-7.792,7.791-7.792
			c4.298,0,7.793,3.495,7.793,7.792C145,203.605,141.505,207.1,137.207,207.1z M137.207,192.434c-3.79,0-6.875,3.084-6.875,6.875
			s3.085,6.875,6.875,6.875c3.791,0,6.875-3.084,6.875-6.875S140.998,192.434,137.207,192.434z"/>
	</g>
	<g>
		<path fill="#FFFFFF" d="M139.48,199.462l-3.121,3.121c-0.041,0.041-0.103,0.067-0.154,0.067c-0.053,0-0.114-0.027-0.154-0.067
			l-0.334-0.334c-0.041-0.041-0.066-0.094-0.066-0.154c0-0.054,0.026-0.114,0.066-0.154l2.633-2.632l-2.633-2.632
			c-0.041-0.041-0.066-0.101-0.066-0.154s0.026-0.114,0.066-0.154l0.334-0.334c0.041-0.041,0.102-0.067,0.154-0.067
			c0.052,0,0.113,0.027,0.154,0.067l3.121,3.121c0.041,0.041,0.065,0.101,0.065,0.154
			C139.546,199.363,139.52,199.422,139.48,199.462z"/>
	</g>
</g>
<g>
	<g>
		<path fill="#FFFFFF" d="M129.416,226.676c0-4.296,3.494-7.792,7.792-7.792c4.297,0,7.792,3.495,7.792,7.792
			c0,4.297-3.495,7.792-7.792,7.792C132.91,234.468,129.416,230.973,129.416,226.676z M144.082,226.676
			c0-3.791-3.084-6.875-6.875-6.875s-6.875,3.084-6.875,6.875s3.084,6.875,6.875,6.875S144.082,230.467,144.082,226.676z"/>
	</g>
	<g>
		<path fill="#FFFFFF" d="M137.053,228.948l-3.121-3.121c-0.041-0.041-0.065-0.101-0.065-0.154c0-0.053,0.026-0.114,0.065-0.154
			l0.334-0.334c0.041-0.041,0.094-0.067,0.154-0.067c0.055,0,0.113,0.027,0.154,0.067l2.631,2.632l2.633-2.632
			c0.041-0.041,0.102-0.067,0.154-0.067c0.052,0,0.113,0.027,0.154,0.067l0.334,0.334c0.041,0.041,0.065,0.101,0.065,0.154
			c0,0.053-0.026,0.114-0.065,0.154l-3.121,3.121c-0.041,0.041-0.103,0.067-0.154,0.067
			C137.152,229.015,137.093,228.988,137.053,228.948z"/>
	</g>
</g>
<g>
	<g>
		<path fill="#FFFFFF" d="M145,254.044c0,4.296-3.495,7.792-7.793,7.792c-4.297,0-7.791-3.495-7.791-7.792s3.494-7.792,7.791-7.792
			C141.505,246.252,145,249.748,145,254.044z M130.334,254.044c0,3.791,3.084,6.875,6.875,6.875s6.875-3.084,6.875-6.875
			s-3.084-6.875-6.875-6.875S130.334,250.254,130.334,254.044z"/>
	</g>
	<g>
		<path fill="#FFFFFF" d="M137.363,251.773l3.121,3.121c0.041,0.041,0.065,0.101,0.065,0.154c0,0.053-0.026,0.114-0.065,0.154
			l-0.334,0.334c-0.041,0.041-0.096,0.067-0.154,0.067c-0.055,0-0.114-0.027-0.154-0.067l-2.632-2.632l-2.632,2.632
			c-0.041,0.041-0.102,0.067-0.154,0.067c-0.052,0-0.113-0.027-0.154-0.067l-0.334-0.334c-0.041-0.041-0.065-0.101-0.065-0.154
			c0-0.053,0.026-0.114,0.065-0.154l3.121-3.121c0.041-0.041,0.103-0.067,0.154-0.067
			C137.264,251.706,137.322,251.732,137.363,251.773z"/>
	</g>
</g>
<g>
	<g>
		<path fill="#FFFFFF" d="M137.207,273.621c4.297,0,7.793,3.495,7.793,7.792s-3.495,7.792-7.793,7.792
			c-4.297,0-7.791-3.495-7.791-7.792S132.912,273.621,137.207,273.621z M137.207,288.287c3.791,0,6.875-3.084,6.875-6.875
			s-3.084-6.875-6.875-6.875c-3.79,0-6.875,3.084-6.875,6.875S133.418,288.287,137.207,288.287z"/>
	</g>
	<g>
		<path fill="#FFFFFF" d="M134.938,281.258l3.121-3.121c0.041-0.041,0.101-0.067,0.153-0.067c0.054,0,0.114,0.027,0.153,0.067
			l0.334,0.334c0.041,0.041,0.066,0.094,0.066,0.154c0,0.054-0.025,0.114-0.066,0.154l-2.631,2.632l2.631,2.632
			c0.041,0.041,0.066,0.101,0.066,0.154c0,0.053-0.025,0.114-0.066,0.154l-0.334,0.334c-0.041,0.041-0.102,0.067-0.153,0.067
			c-0.054,0-0.114-0.027-0.153-0.067l-3.121-3.121c-0.041-0.041-0.067-0.101-0.067-0.154
			C134.869,281.357,134.896,281.299,134.938,281.258z"/>
	</g>
</g>
<g>
	<path fill="#FFFFFF" d="M145,300.667v10h8v-10H145z M152,303.667h-5v1h4.333l0.667,0.334V306v2.001v0.666h-1.667h-4H146v-0.666
		v-1.334h1v1h4v-2h-4.667H146V305v-1v-1.333h0.333H152V303.667z"/>
	<path fill="#FFFFFF" d="M144,313.667v10h10v-10H144z M153,315.667h-2v2h2v1h-2v4h-1v-4h-1v-1h1v-1.666l0.333-1.334H153V315.667z"/>
	<path fill="#CC4241" d="M145,324.667v10h8v-10H145z M152,327.667h-5v1h4.333l0.667,0.334V330v2.001v0.666h-1.667h-4H146v-0.666
		v-1.334h1v1h4v-2h-4.667H146V329v-1v-1.333h0.333H152V327.667z"/>
	<path fill="#CC4241" d="M144,337.667v10h10v-10H144z M153,339.667h-2v2h2v1h-2v4h-1v-4h-1v-1h1v-1.666l0.333-1.334H153V339.667z"/>
</g>
<g>
	<g opacity="0.4">
		<g>
			<path fill="#FFFFFF" d="M106.118,1575.348c-32.084,0-58.188-26.102-58.188-58.188c0-32.084,26.103-58.188,58.188-58.188
				s58.187,26.104,58.187,58.188C164.305,1549.246,138.203,1575.348,106.118,1575.348z M106.118,1463.128
				c-29.793,0-54.031,24.241-54.031,54.03c0,29.793,24.237,54.031,54.031,54.031s54.03-24.238,54.03-54.031
				C160.148,1487.369,135.912,1463.128,106.118,1463.128z"/>
		</g>
		<g>
			<polygon fill="#FFFFFF" points="100.578,1518.779 111.658,1518.779 106.118,1505.896 			"/>
			<path fill="#FFFFFF" d="M106.118,1483.979l-30.751,10.824l4.479,40.974l26.272,14.563l26.271-14.563l4.48-40.974
				L106.118,1483.979z M118.242,1534.089l-4.092-9.521H98.086l-4.092,9.521H86.77l19.351-42.39l19.351,42.39H118.242z"/>
		</g>
	</g>
	<g opacity="0.4">
		<g>
			<path fill="#FFFFFF" d="M106.465,1938.152c-32.083,0-58.187-26.105-58.187-58.188c0-32.085,26.102-58.187,58.187-58.187
				c32.086,0,58.188,26.102,58.188,58.187C164.652,1912.047,138.551,1938.152,106.465,1938.152z M106.465,1825.933
				c-29.792,0-54.03,24.239-54.03,54.031c0,29.791,24.237,54.03,54.03,54.03c29.795,0,54.031-24.239,54.031-54.03
				C160.496,1850.172,136.258,1825.933,106.465,1825.933z"/>
		</g>
		<path fill="#FFFFFF" d="M120.146,1845.676H92.785c-2.294,0-4.156,1.859-4.156,4.156v60.266c0,2.298,1.861,4.155,4.156,4.155
			h27.361c2.293,0,4.156-1.857,4.156-4.155v-60.266C124.301,1847.535,122.439,1845.676,120.146,1845.676z M100.055,1908.363h-4.846
			v-4.849h4.846V1908.363z M100.055,1900.052h-4.846v-4.846h4.846V1900.052z M100.055,1891.739h-4.846v-4.846h4.846V1891.739z
			 M108.887,1908.363h-4.846v-4.849h4.846V1908.363z M108.887,1900.052h-4.846v-4.846h4.846V1900.052z M108.887,1891.739h-4.846
			v-4.846h4.846V1891.739z M117.723,1908.363h-4.848v-4.849h4.848V1908.363z M117.723,1900.052h-4.848v-4.846h4.848V1900.052z
			 M117.723,1891.739h-4.848v-4.846h4.848V1891.739z M117.723,1882.389H95.209v-30.82h22.514V1882.389z"/>
	</g>
	<g opacity="0.4">
		<g>
			<path fill="#FFFFFF" d="M106.465,2302.687c-32.083,0-58.187-26.099-58.187-58.186c0-32.082,26.102-58.188,58.187-58.188
				c32.086,0,58.188,26.104,58.188,58.188C164.652,2276.588,138.551,2302.687,106.465,2302.687z M106.465,2190.469
				c-29.792,0-54.03,24.239-54.03,54.032c0,29.79,24.237,54.03,54.03,54.03c29.795,0,54.031-24.24,54.031-54.03
				C160.496,2214.708,136.258,2190.469,106.465,2190.469z"/>
		</g>
		<path fill="#FFFFFF" d="M133.652,2248.655c-0.441,0-0.873,0.063-1.295,0.132c0.455-1.705,0.775-3.466,0.775-5.326
			c0-11.479-9.303-20.78-20.779-20.78c-9.137,0-16.807,5.935-19.592,14.123c-1.564-0.592-3.234-0.955-5-0.955
			c-7.844,0-14.2,6.355-14.2,14.197s6.356,14.195,14.2,14.195c4.424,0,42.412,0,45.893,0c4.305,0,7.791-3.49,7.791-7.793
			S137.957,2248.655,133.652,2248.655z"/>
	</g>
	<g opacity="0.4">
		<g>
			<path fill="#FFFFFF" d="M106.813,1208.906c-32.083,0-58.188-26.104-58.188-58.188c0-32.086,26.103-58.187,58.188-58.187
				c32.084,0,58.188,26.101,58.188,58.187C165,1182.805,138.896,1208.906,106.813,1208.906z M106.813,1096.688
				c-29.792,0-54.029,24.235-54.029,54.029c0,29.793,24.237,54.029,54.029,54.029c29.795,0,54.029-24.236,54.029-54.029
				S136.605,1096.688,106.813,1096.688z"/>
		</g>
		<path fill="#FFFFFF" d="M104.041,1119.202v40.521c0,0-13.506,0-25.283,9.699c0,0,0.086-2.079,0-4.156
			C88.107,1156.78,100.316,1138.771,104.041,1119.202z"/>
		<path fill="#FFFFFF" d="M104.906,1148.532v11.887c0,0-12.902,0.087-23.801,8.126c18.348-8.299,38.434-5.443,38.434-5.443v-35.065
			C115.42,1136.539,110.189,1143.26,104.906,1148.532z"/>
		<g>
			<path fill="#FFFFFF" d="M120.23,1147.297v16.759c0,0-22.6-2.684-38.617,5.354v0.101c30.652-8.832,49.789,0.868,49.789,0.868V1136
				C128.498,1140.315,124.572,1144.045,120.23,1147.297z"/>
		</g>
	</g>
</g>
<path fill="#FFFFFF" d="M61.844,438.403h-3.322c-2.475,0-4.805-1.188-4.805-3.938c0-2.009-0.071-8.749,3.072-8.749
	c0.52,0,3.097,2.107,6.444,2.107c1.136,0,2.228-0.199,3.294-0.571c-0.077,0.544-0.124,1.09-0.124,1.636
	c0,2.252,0.718,4.483,2.004,6.345C65.833,435.309,63.502,436.423,61.844,438.403z M63.233,425.719c-3.495,0-6.344-2.849-6.344-6.339
	c0-3.494,2.85-6.344,6.344-6.344c3.49,0,6.337,2.85,6.337,6.344C69.571,422.871,66.723,425.719,63.233,425.719z M88.326,457.431
	H66.675c-3.962,0-6.614-2.402-6.614-6.417c0-5.599,1.313-14.192,8.57-14.192c0.843,0,3.916,3.441,8.869,3.441
	c4.956,0,8.025-3.441,8.87-3.441c7.261,0,8.571,8.597,8.571,14.192C94.941,455.026,92.287,457.431,88.326,457.431z M77.5,438.403
	c-5.25,0-9.512-4.263-9.512-9.515c0-5.253,4.262-9.512,9.512-9.512c5.251,0,9.514,4.259,9.514,9.512S82.751,438.403,77.5,438.403z
	 M91.77,425.719c-3.492,0-6.34-2.849-6.34-6.339c0-3.494,2.848-6.344,6.34-6.344c3.494,0,6.344,2.85,6.344,6.344
	C98.113,422.871,95.264,425.719,91.77,425.719z M96.479,438.403h-3.32c-1.658-1.98-3.988-3.098-6.563-3.17
	c1.285-1.858,2.008-4.093,2.008-6.345c0-0.546-0.052-1.092-0.127-1.636c1.064,0.372,2.154,0.571,3.295,0.571
	c3.344,0,5.924-2.107,6.44-2.107c3.146,0,3.073,6.74,3.073,8.749C101.285,437.216,98.953,438.403,96.479,438.403z"/>
<path fill="#FFFFFF" d="M99.286,757.826l-2.813,2.836c-0.631,0.604-1.498,0.975-2.393,0.975c-0.893,0-1.762-0.367-2.367-0.975
	l-9.546-9.568c-0.628-0.604-0.998-1.475-0.998-2.367c0-1,0.421-1.813,1.13-2.522l-6.729-6.729l-3.313,3.313
	c-0.238,0.236-0.552,0.369-0.893,0.369c-0.343,0-0.658-0.133-0.895-0.369c0.789,0.787,1.524,1.366,1.524,2.576
	c0,0.684-0.262,1.288-0.735,1.787c-0.895,0.945-1.84,2.209-3.261,2.209c-0.658,0-1.315-0.266-1.787-0.737l-10.73-10.729
	c-0.473-0.473-0.737-1.131-0.737-1.785c0-1.423,1.262-2.365,2.208-3.262c0.502-0.475,1.104-0.735,1.788-0.735
	c1.21,0,1.791,0.735,2.577,1.522c-0.234-0.232-0.369-0.553-0.369-0.893c0-0.342,0.134-0.658,0.369-0.896l9.151-9.15
	c0.237-0.235,0.552-0.367,0.895-0.367c0.341,0,0.655,0.132,0.893,0.367c-0.79-0.786-1.524-1.365-1.524-2.575
	c0-0.688,0.261-1.288,0.734-1.79c0.895-0.945,1.841-2.208,3.261-2.208c0.658,0,1.315,0.264,1.788,0.734l10.728,10.729
	c0.473,0.473,0.736,1.13,0.736,1.787c0,1.42-1.264,2.369-2.209,3.262c-0.5,0.476-1.104,0.734-1.787,0.734
	c-1.211,0-1.791-0.734-2.578-1.521c0.236,0.234,0.369,0.554,0.369,0.896c0,0.34-0.133,0.658-0.369,0.893l-3.314,3.314l6.73,6.729
	c0.711-0.709,1.527-1.132,2.525-1.132c0.893,0,1.762,0.37,2.393,0.976l9.545,9.545c0.604,0.632,0.974,1.5,0.974,2.394
	C100.257,756.351,99.893,757.219,99.286,757.826z"/>
<g>
	<g>
		<path fill="#FFFFFF" d="M56.114,578.494c0-5.213,4.224-9.438,9.437-9.439c5.213,0.004,9.437,4.229,9.437,9.439
			s-4.224,9.434-9.437,9.436C60.336,587.928,56.114,583.707,56.114,578.494 M59.481,578.494c0.006,3.352,2.716,6.061,6.068,6.067
			c3.351-0.01,6.064-2.719,6.07-6.067c-0.006-3.355-2.72-6.064-6.07-6.07C62.198,572.43,59.488,575.139,59.481,578.494"/>
		<rect x="63.868" y="586.557" fill="#FFFFFF" width="3.366" height="11.163"/>
		<rect x="56.402" y="589.523" fill="#FFFFFF" width="18.299" height="3.366"/>
		<path fill="#FFFFFF" d="M56.116,604.713c0-5.209,4.222-9.433,9.435-9.436c5.213,0.003,9.437,4.227,9.437,9.436
			c-0.002,0.229-0.018,0.331-0.015,0.331v0.003l-3.365-0.104c0.007-0.194,0.018-0.229,0.013-0.229c-0.006-3.35-2.72-6.062-6.07-6.07
			c-3.354,0.012-6.063,2.724-6.068,6.07c-0.002,0,0.004,0.043,0.012,0.211l-3.367,0.135
			C56.13,605.044,56.117,604.928,56.116,604.713"/>
	</g>
	<g>
		<path fill="#FFFFFF" d="M80.012,578.494c0-5.213,4.223-9.438,9.438-9.439c5.213,0.004,9.437,4.229,9.437,9.439
			s-4.224,9.434-9.437,9.436C84.234,587.928,80.012,583.707,80.012,578.494 M83.382,578.494c0.005,3.352,2.716,6.061,6.067,6.067
			c3.352-0.01,6.063-2.719,6.066-6.067c-0.004-3.355-2.718-6.064-6.066-6.07C86.098,572.43,83.387,575.139,83.382,578.494"/>
		<rect x="87.766" y="586.557" fill="#FFFFFF" width="3.364" height="11.163"/>
		<rect x="80.301" y="589.523" fill="#FFFFFF" width="18.297" height="3.366"/>
		<path fill="#FFFFFF" d="M80.014,604.713c0-5.209,4.223-9.433,9.438-9.436c5.211,0.003,9.437,4.227,9.437,9.436
			c-0.005,0.229-0.021,0.331-0.017,0.331v0.003l-3.364-0.104c0.008-0.194,0.016-0.229,0.012-0.229
			c-0.004-3.35-2.718-6.062-6.065-6.07c-3.354,0.012-6.065,2.724-6.067,6.07c-0.004,0,0.002,0.043,0.01,0.211l-3.365,0.135
			C80.027,605.044,80.016,604.928,80.014,604.713"/>
	</g>
</g>
<g>
	<path fill="#FFFFFF" d="M96.835,886.053c-0.315,0-0.628,0.033-0.924,0.099c-1.149-2.948-3.396-5.343-6.24-6.688
		c0.021-0.187,0.038-0.378,0.038-0.57c0-2.497-2.025-4.521-4.521-4.521c-1.059,0-2.029,0.366-2.801,0.978v3.098v2.159v1.841
		c0.771,0.604,1.742,0.977,2.801,0.977c1.543,0,2.903-0.775,3.723-1.955c2.331,1.148,4.152,3.153,5.068,5.611
		c-1.016,0.826-1.668,2.09-1.668,3.502c0,1.434,0.666,2.707,1.701,3.531c-0.9,2.501-2.744,4.547-5.104,5.711
		c-0.82-1.184-2.178-1.952-3.723-1.952c-1.059,0-2.031,0.368-2.802,0.977v1.843v2.154v3.098c0.771,0.609,1.743,0.978,2.802,0.978
		c2.496,0,4.521-2.025,4.521-4.521c0-0.191-0.017-0.385-0.037-0.566c2.882-1.366,5.146-3.807,6.285-6.808
		c0.28,0.056,0.575,0.082,0.878,0.082c2.499,0,4.523-2.023,4.523-4.521C101.357,888.078,99.333,886.053,96.835,886.053z"/>
	<path fill="#FFFFFF" d="M53.699,873.111l-0.057,35.181l26.26,4.775v-44.733L53.699,873.111z M68.496,899.49
		c-2.141,1.557-4.944,0.896-7.199-0.029c-0.028-1.313-0.062-2.623-0.104-3.94c1.446,1.069,3.587,2.646,5.315,1.185
		c1.333-2.239-1.291-3.665-2.809-4.751c-3.257-1.969-3.376-7.352-0.217-9.451c1.847-1.17,4.102-0.8,6.137-0.514
		c0.031,1.236,0.063,2.479,0.09,3.717c-1.693-0.537-3.856-1.614-5.253,0.113c-0.973,2.541,2.104,3.498,3.59,4.818
		C70.948,892.521,71.196,897.344,68.496,899.49z"/>
</g>
<g>
	<g>
		<rect x="8.067" y="9.121" fill="#6ECAF3" width="25.333" height="25.333"/>
		<path fill="#FFFFFF" d="M25.416,19.386c0.007,0.105,0.007,0.209,0.007,0.314c0,3.194-2.431,6.874-6.874,6.874
			c-1.369,0-2.641-0.396-3.71-1.084c0.194,0.022,0.381,0.03,0.583,0.03c1.129,0,2.169-0.381,3-1.032
			c-1.063-0.022-1.953-0.718-2.259-1.676c0.149,0.023,0.299,0.038,0.457,0.038c0.217,0,0.434-0.03,0.636-0.082
			c-1.107-0.224-1.937-1.197-1.937-2.372c0-0.007,0-0.022,0-0.03c0.321,0.18,0.695,0.292,1.092,0.307
			c-0.651-0.434-1.077-1.175-1.077-2.012c0-0.449,0.12-0.86,0.329-1.22c1.189,1.466,2.977,2.424,4.981,2.528
			c-0.037-0.179-0.06-0.366-0.06-0.553C20.584,18.084,21.661,17,23,17c0.696,0,1.324,0.292,1.765,0.763
			c0.546-0.104,1.07-0.306,1.534-0.583c-0.179,0.561-0.561,1.032-1.062,1.332c0.486-0.052,0.958-0.187,1.391-0.374
			C26.298,18.616,25.887,19.042,25.416,19.386z"/>
	</g>
	<g>
		<rect x="33.4" y="9.121" fill="#6783C2" width="25.333" height="25.333"/>
		<path fill="#FFFFFF" d="M49.566,17.283h-1.271c-0.996,0-1.183,0.479-1.183,1.167v1.531h2.373l-0.315,2.397h-2.058v6.149h-2.479
			v-6.149h-2.065V19.98h2.065v-1.766c0-2.05,1.256-3.167,3.087-3.167c0.875,0,1.629,0.065,1.847,0.097L49.566,17.283L49.566,17.283z
			"/>
	</g>
	<g>
		<rect x="8.067" y="34.454" fill="#5EC0ED" width="25.333" height="25.333"/>
		<path fill="#FFFFFF" d="M25.416,44.719c0.007,0.105,0.007,0.209,0.007,0.314c0,3.194-2.431,6.874-6.874,6.874
			c-1.369,0-2.641-0.396-3.71-1.084c0.194,0.021,0.381,0.03,0.583,0.03c1.129,0,2.169-0.381,3-1.032
			c-1.063-0.022-1.953-0.718-2.259-1.676c0.149,0.023,0.299,0.038,0.457,0.038c0.217,0,0.434-0.03,0.636-0.082
			c-1.107-0.224-1.937-1.197-1.937-2.372c0-0.007,0-0.022,0-0.03c0.321,0.18,0.695,0.292,1.092,0.307
			c-0.651-0.434-1.077-1.175-1.077-2.012c0-0.449,0.12-0.86,0.329-1.22c1.189,1.466,2.977,2.424,4.981,2.528
			c-0.037-0.179-0.06-0.366-0.06-0.553c0-1.332,1.077-2.416,2.416-2.416c0.696,0,1.324,0.292,1.765,0.763
			c0.546-0.104,1.07-0.306,1.534-0.583c-0.179,0.561-0.561,1.032-1.062,1.332c0.486-0.052,0.958-0.187,1.391-0.374
			C26.298,43.949,25.887,44.375,25.416,44.719z"/>
	</g>
	<g>
		<rect x="33.4" y="34.454" fill="#516DB4" width="25.333" height="25.333"/>
		<path fill="#FFFFFF" d="M49.566,42.616h-1.271c-0.996,0-1.183,0.479-1.183,1.167v1.531h2.373l-0.315,2.397h-2.058v6.149h-2.479
			v-6.149h-2.065v-2.397h2.065v-1.766c0-2.05,1.256-3.167,3.087-3.167c0.875,0,1.629,0.065,1.847,0.097L49.566,42.616L49.566,42.616
			z"/>
	</g>
</g>
<g>
	<g>
		<path fill="#515252" d="M20.474,88.125c-0.274,0-0.54-0.113-0.725-0.306l-2.763-2.755c-0.943,0.652-2.071,0.999-3.215,0.999
			c-3.134,0-5.672-2.538-5.672-5.672c0-3.134,2.538-5.672,5.672-5.672s5.672,2.538,5.672,5.672c0,1.144-0.347,2.272-0.999,3.215
			l2.764,2.763c0.185,0.185,0.298,0.451,0.298,0.725C21.505,87.658,21.038,88.125,20.474,88.125z M13.771,76.781
			c-1.99,0-3.609,1.619-3.609,3.609c0,1.99,1.619,3.61,3.609,3.61s3.609-1.619,3.609-3.609
			C17.38,78.401,15.761,76.781,13.771,76.781z"/>
	</g>
</g>
</svg>
