<svg id="Layer_1" data-name="Layer 1" xmlns="http://www.w3.org/2000/svg" viewBox="0 0 148.96 330.19"><title>low startup cost</title><path d="M210.79,240.09l-4-7.46-.65-1.55-2.22-6.38-.82-3.32c-.47-2.58-.93-5.17-1.4-7.75l-.31-3.12c.23-3.44.47-6.88.7-10.32a8.13,8.13,0,0,0,.74-3.86,136,136,0,0,1,5.78-15.49l4.55-7.68a81.88,81.88,0,0,1,16.68-16.73l8.33-4.91c3.28-1.59,6.58-3.12,9.81-4.77,2.71-1.39,6.79-1.54,7.94-4.1s.24-6.31.22-9.52l0-3.24,0-9.66V117c.37-3.13,2.26-5.26,4.63-7.08h27.08c2.64,1.92,4.57,4.26,4.62,7.73l0,3.24q0,4.83,0,9.66l0,3.23-.12,7.86c0,1-.14,2,1.2,2.15l2.67.87,7,2.27,2.67.9,7.05,2.82a3.27,3.27,0,0,0,2,1.09l4.9,2.78a7.27,7.27,0,0,0,2.82,1.87l5.06,3.88,2.06,1.85q2.22,2.29,4.45,4.57l1.11,1.34,4.56,6.81a2,2,0,0,0,.82,1.5l2.56,6.45a4,4,0,0,0,.71,2.58l.71,9c-.14,1-.29,2.07-.43,3.11-2,8.15-6.74,13.66-15.14,15.62l-3.88.09a39.4,39.4,0,0,1-7.69-1.54l-2-1.07q-2.52-2.11-5-4.25l-1.34-1.8c-.92-1.88-1.83-3.76-2.75-5.63a4.66,4.66,0,0,0-1.23-2.58c-2.16-4.8-6-8-10.2-11.68v20.69c0,1.08,0,2.16,0,3.24l0,9.66,0,3.24,0,9.66c0,1.08,0,2.16,0,3.24-.54,4.33,3.48,3.29,5.47,4.64l3.32,1.51,5.73,2.32,3.29,1.55,5.28,2.88,2.61,1.83,4.4,3.36,2.54,2.23,4.54,4.24,2,2.05,4.41,5.41.69.91,3.8,6.5,1.36,2.82,2.2,6.1.76,2.68,1.64,7.65.24,3.23c.07,3,.13,6,.2,9.06a9.74,9.74,0,0,0-.28,3.84l-2.13,11.6a12.83,12.83,0,0,0-1.38,4.44,79.39,79.39,0,0,1-13.13,22.54l-5.5,5.49c-6,5.26-13.27,8.4-20.52,11.51-1.81.64-3.63,1.23-5.42,1.92-6.49,2.54-6.48,2.55-6.08,9.57,0,1-.1,1.92-.11,2.89,0,4.33,0,4.33,4.5,4.07l3.24,0,9.66,0,3.24,0c2.4-.14,4.13,1.13,5.71,2.73.34.66.69,1.32,1,2,.95,3.09,0,5.58-2.2,7.86q-20,20.63-39.91,41.36c-1.19,1.24-2.72,1.87-4,2.92h-4.51c-4.8-3.95-8.66-8.84-13.24-13l-2.25-2.33a19.26,19.26,0,0,0-3.87-4,8.24,8.24,0,0,0-2.55-2.64l-3.75-3.87a4.73,4.73,0,0,0-1.9-1.94,34.56,34.56,0,0,0-5.19-5.42l-1.47-1.53a24.29,24.29,0,0,0-4.46-4.6,4.78,4.78,0,0,0-1.92-2L227,394.32l-1.1-1.95c-.12-6.51,2.08-8.75,9-9.15l3.24,0,9.66,0c5.78.35,5.78.35,6.3-5.4a6,6,0,0,0,0-.94c.13-3.07,1.31-6.52-2.92-8l-2.69-.89-7.68-2.26-2-.95-5.64-2.8-2.74-1.74q-2.55-1.68-5.08-3.38l-2.62-2-4.47-3.82-2-1.93-4-4.47-1.65-2-3.84-5.83a5.65,5.65,0,0,0-1.42-2.59c-.8-1.94-1.61-3.87-2.41-5.81a4.48,4.48,0,0,0-.86-2.49l-1.38-8.38-.15-3.25a48.39,48.39,0,0,1,1.39-10.5l2.42-5.48,4.23-4.51,5.8-2.26a28.77,28.77,0,0,1,9,.09l1.36.35a27.74,27.74,0,0,1,6.26,3.68l1.18,1.31c1.2,2.12,2.41,4.24,3.61,6.37l.91,2a32.46,32.46,0,0,0,2.84,7,4.36,4.36,0,0,0,1.26,2.58,13.12,13.12,0,0,0,3.89,5.8,2.63,2.63,0,0,0,1.56,1.45c1.52,1.7,3.54,2.71,5.41,3.93,1.59,1,2.06.37,2-1.23,0-2.88-.07-5.77-.1-8.65,0-1.08,0-2.16,0-3.24q0-4.83,0-9.66c0-1.08,0-2.16,0-3.24q0-4.83,0-9.66l0-3.23q0-4.83,0-9.66c0-1.08,0-2.16,0-3.24.3-5.12.3-5.12-5-6.55-.48-.65-1.21-.6-1.9-.68l-7.05-2.77-1.31-.54-7.14-3.76a3.44,3.44,0,0,0-1.93-1.26L224,255l-1.67-1.38-4.65-4.48-1.72-2c-1.55-2.06-3.11-4.12-4.66-6.19Zm55.58-109.58a4.12,4.12,0,0,0,.16,3.28,33,33,0,0,0-.16,9.62l-.22,3.91c-.91,4-3.66,6-7.34,7.12a10.44,10.44,0,0,0-4.52,1.3c-19,6.36-32.51,18.32-38.47,37.92a12.08,12.08,0,0,0-.91,4.59,30.38,30.38,0,0,0-1.2,11l0,3.23a24.54,24.54,0,0,0,1.17,9,3.29,3.29,0,0,0,.6,2.59,18.81,18.81,0,0,0,2.44,7.16,4.69,4.69,0,0,0,1.4,2.7,13.58,13.58,0,0,0,3.3,5,4.51,4.51,0,0,0,1.74,2,17.5,17.5,0,0,0,4.72,4.44,6.17,6.17,0,0,0,2.59,1.95,21.26,21.26,0,0,0,6.43,3.94,3.15,3.15,0,0,0,2,1.09,21.66,21.66,0,0,0,6.41,2.78,4.75,4.75,0,0,0,2.62,1.09,28.85,28.85,0,0,0,7,2.26,7.71,7.71,0,0,0,3.3,1,13.32,13.32,0,0,1,4.65,2.66l1.72,2.73.54,7.57a7.29,7.29,0,0,0,0,3.93c-.41,7.29-.34,14.58,0,21.87a7.25,7.25,0,0,0,0,3.92,36.88,36.88,0,0,0,0,9,7.29,7.29,0,0,0,0,3.93,36.88,36.88,0,0,0,0,9,7.29,7.29,0,0,0,0,3.93c-.08,1.58-.17,3.16-.25,4.75-.2,4.65-2.15,6.79-6.78,7.14a41.12,41.12,0,0,1-5.07-.22l-2.59-.69-5.79-2.63-2.59-1.83-4.42-4-1.15-1.32-4.54-6.9c-.15-.54-.14-1.15-.74-1.45a37,37,0,0,0-3.12-7.59c-.12-.54-.12-1.14-.69-1.46a15.19,15.19,0,0,0-3.35-5.76,5.59,5.59,0,0,0-2.58-2.68c-2.66-2.51-5.47-2-8.17-.2-4.68,3.2-6.21,7.72-5.22,13.2a7,7,0,0,0,.9,3.3,19.63,19.63,0,0,0,3.26,7.37l.56,1a25.33,25.33,0,0,0,4.17,6.36,2,2,0,0,0,1,1.37,21.37,21.37,0,0,0,4.7,5.75,4.41,4.41,0,0,0,1.94,1.93,16.78,16.78,0,0,0,4.88,4,3.28,3.28,0,0,0,1.91,1.31,21.74,21.74,0,0,0,6.74,3.78,4.31,4.31,0,0,0,2.59,1.22,22.85,22.85,0,0,0,7.07,2.7c.49.66,1.21.61,1.91.66a32,32,0,0,0,7.78,2.33l2.59.76a14.77,14.77,0,0,1,4,3.88l.83,2.6q.09,4.5.19,9a7.3,7.3,0,0,0,0,4l-.23,9.06c-.36,1.91-1.65,3.16-3,4.35-6.63,1.57-13.4.21-20.61.93l15.62,16.56a4.9,4.9,0,0,0,1.9,2l4,4.39a8.24,8.24,0,0,0,2.48,2.64,26.71,26.71,0,0,0,4.43,4.77c3.15,4.12,3.13,4.11,6.64.31Q290.78,410.29,304,396c.6-.65,1.57-1.1,1.58-2.26h-5.45l-9.66,0-3.19-.23a9.17,9.17,0,0,1-4.3-3.22l-.68-3.14a41.48,41.48,0,0,0,.05-9,8.12,8.12,0,0,0-.05-3.92c.59-3.2-.18-6.48.63-9.67a10.64,10.64,0,0,1,4.87-4.76,107.16,107.16,0,0,0,14.91-5.63,61,61,0,0,0,19.06-11,41.42,41.42,0,0,0,13.21-21.16c1.84-4,2.52-8.24,3.08-12.53.07-1.2.14-2.4.22-3.6a23.46,23.46,0,0,0,0-9.73c-.09-1.06-.18-2.12-.26-3.18a24,24,0,0,0-1.7-7.78,3.72,3.72,0,0,0-.8-2.53,18.73,18.73,0,0,0-3.19-7.09,3,3,0,0,0-1.2-2,15.69,15.69,0,0,0-3.86-5.17,4.26,4.26,0,0,0-1.84-2,18.32,18.32,0,0,0-5.08-4.57l-1.76-1.35a24.85,24.85,0,0,0-6.88-4.34,3.3,3.3,0,0,0-1.95-1.15,30.22,30.22,0,0,0-6.35-3.06l-1.36-.54a36.23,36.23,0,0,0-8.35-3.18c-.45-.55-1.1-.52-1.72-.58l-6.07-2.45-2.5-2.76c-.92-2-.84-4.14-1.1-6.24a8.12,8.12,0,0,0-.05-3.92,40.85,40.85,0,0,0,.05-9,8.13,8.13,0,0,0-.05-3.92,40.85,40.85,0,0,0,.05-9,8.08,8.08,0,0,0-.05-3.91,40.86,40.86,0,0,0,.05-9,6.88,6.88,0,0,0-.12-3.92,35.51,35.51,0,0,0,.12-9,8.12,8.12,0,0,0-.05-3.92c1.06-5.75,2.61-7.22,8.16-7.73l2.59.55,5.52,2.15,2.85,1.84,4.53,3.85,2.55,2.63,3.76,4.53a7.26,7.26,0,0,0,2,2.74,19.87,19.87,0,0,0,3.81,5.28,2.76,2.76,0,0,0,1.43,1.62c1.67,2.09,3.59,3.74,6.46,3.77,4.26-.15,6.8-2.69,7.66-7.67a15.57,15.57,0,0,0-.67-9c-.31-.9-.61-1.79-.92-2.68a16.33,16.33,0,0,0-3.41-6.4,5.54,5.54,0,0,0-2-2.62,16,16,0,0,0-4.5-4.58,4.06,4.06,0,0,0-2-1.71,16,16,0,0,0-4.94-3.4,6.5,6.5,0,0,0-2.8-1.71,19.32,19.32,0,0,0-5.71-2.75,5.66,5.66,0,0,0-3.29-1.31,33.12,33.12,0,0,0-7.7-2.15l-1.93-.5L287.42,153l-1.93-1.29c-1.48-1.65-2.82-3.38-3.11-5.68a10.09,10.09,0,0,0-.13-3.91,40.86,40.86,0,0,0,.05-9,8.12,8.12,0,0,0-.05-3.92c.08-2.09,0-4.2.26-6.27.33-2.61-.88-3.1-3.06-2.63h-2.59l-9.66,0c-1.05-.13-1.2.35-.8,1.19A37,37,0,0,0,266.37,130.51Z" transform="translate(-200.52 -109.91)" fill="#252222"/><path d="M275.5,274.41c0,.57-.16,1-.8,1.2C274.3,274.76,274.45,274.29,275.5,274.41Z" transform="translate(-200.52 -109.91)" fill="#f3f3f3"/><path d="M238.33,228.61l-1.87-2L233,220.91l-.84-2.69c-.37-2.76-.75-5.51-1.12-8.27v-3.24a53.13,53.13,0,0,1,2.38-11.64l3.65-7a57.51,57.51,0,0,1,8.93-9l7-3.61c2.89-1.26,5.81-2.12,9-.94l2.57,1.54c1.57,1.51,2.82,3.18,2.8,5.5l0,3.24c0,3.22,0,6.44,0,9.66l0,3.24,0,9.66v12.9c0,1.08,0,2.15,0,3.23-.45,3.23.38,6.52-.52,9.72a14.51,14.51,0,0,1-3.46,3.66,11,11,0,0,1-9.56.39l-1.5-.49-6.9-3-2.7-1.7Zm7.64-7.68a11.23,11.23,0,0,0,6.44,3.28,12.74,12.74,0,0,0,4.42,1.71v-6.31c0-3.22,0-6.44,0-9.66V186.82c-8.93,1.83-15.13,10.27-15.23,20.54v3.24a13,13,0,0,0,2,7.71A5.72,5.72,0,0,0,246,220.93Z" transform="translate(-200.52 -109.91)" fill="#252222"/><path d="M296.94,268.11l1.46.77q3,1.88,6,3.77l2.22,1.75,5.07,4.77.93,1.08,4.22,5.83c.29.64.59,1.28.88,1.91l2,7.25.49,3.07c-.19,3.25-.37,6.49-.56,9.74-.29,1.48-.57,3-.86,4.44-4.27,12.07-12.61,20.11-24.47,24.63l-5.13,1.43a6.57,6.57,0,0,1-5.33-2.18l-1.13-1.95c-.12-3-.25-6-.37-9V282.82c0-2.76.23-5.53.09-8.29a8.31,8.31,0,0,1,3.52-7.71l3.8-.68Zm-1.81,26.32,0,3.24,0,9.66,0,3.24,0,9.66v6.06c6.31-5.28,12.36-10.11,14.06-18.31,1.19-3.38,2-6.78.6-10.31L309,295a11.87,11.87,0,0,0-3.46-6.43,6,6,0,0,0-2.14-2.46,21,21,0,0,0-8.27-7Z" transform="translate(-200.52 -109.91)" fill="#252222"/></svg>